<mxfile host="app.diagrams.net" agent="Mozilla/5.0 (Windows NT 10.0; Win64; x64) AppleWebKit/537.36 (KHTML, like Gecko) Chrome/127.0.0.0 Safari/537.36" version="24.7.7">
  <diagram name="Page-1" id="S9iRQZJwqi7_hZqABlG5">
    <mxGraphModel grid="1" page="1" gridSize="10" guides="1" tooltips="1" connect="1" arrows="1" fold="1" pageScale="1" pageWidth="850" pageHeight="1100" math="0" shadow="0">
      <root>
        <mxCell id="0" />
        <mxCell id="1" parent="0" />
        <mxCell id="j7aMF0O2FUER8QF_j6tQ-43" value="" style="ellipse;whiteSpace=wrap;html=1;" vertex="1" parent="1">
          <mxGeometry x="354" y="420" width="127" height="55" as="geometry" />
        </mxCell>
        <mxCell id="j7aMF0O2FUER8QF_j6tQ-7" value="Administration" style="shape=umlLifeline;perimeter=lifelinePerimeter;whiteSpace=wrap;html=1;container=1;dropTarget=0;collapsible=0;recursiveResize=0;outlineConnect=0;portConstraint=eastwest;newEdgeStyle={&quot;curved&quot;:0,&quot;rounded&quot;:0};" vertex="1" parent="1">
          <mxGeometry x="470" y="45" width="100" height="855" as="geometry" />
        </mxCell>
        <mxCell id="j7aMF0O2FUER8QF_j6tQ-38" value="" style="ellipse;whiteSpace=wrap;html=1;" vertex="1" parent="1">
          <mxGeometry x="449" y="628" width="131" height="60" as="geometry" />
        </mxCell>
        <mxCell id="j7aMF0O2FUER8QF_j6tQ-29" value="" style="ellipse;whiteSpace=wrap;html=1;" vertex="1" parent="1">
          <mxGeometry x="354" y="279" width="127" height="55" as="geometry" />
        </mxCell>
        <mxCell id="j7aMF0O2FUER8QF_j6tQ-5" value="" style="shape=umlLifeline;perimeter=lifelinePerimeter;whiteSpace=wrap;html=1;container=1;dropTarget=0;collapsible=0;recursiveResize=0;outlineConnect=0;portConstraint=eastwest;newEdgeStyle={&quot;curved&quot;:0,&quot;rounded&quot;:0};participant=umlActor;" vertex="1" parent="1">
          <mxGeometry x="110" y="45" width="30" height="855" as="geometry" />
        </mxCell>
        <mxCell id="j7aMF0O2FUER8QF_j6tQ-6" value="Application" style="shape=umlLifeline;perimeter=lifelinePerimeter;whiteSpace=wrap;html=1;container=1;dropTarget=0;collapsible=0;recursiveResize=0;outlineConnect=0;portConstraint=eastwest;newEdgeStyle={&quot;curved&quot;:0,&quot;rounded&quot;:0};" vertex="1" parent="1">
          <mxGeometry x="270" y="45" width="100" height="855" as="geometry" />
        </mxCell>
        <mxCell id="j7aMF0O2FUER8QF_j6tQ-8" value="Bank" style="shape=umlLifeline;perimeter=lifelinePerimeter;whiteSpace=wrap;html=1;container=1;dropTarget=0;collapsible=0;recursiveResize=0;outlineConnect=0;portConstraint=eastwest;newEdgeStyle={&quot;curved&quot;:0,&quot;rounded&quot;:0};" vertex="1" parent="1">
          <mxGeometry x="650" y="45" width="100" height="855" as="geometry" />
        </mxCell>
        <mxCell id="j7aMF0O2FUER8QF_j6tQ-10" value="Start session" style="html=1;verticalAlign=bottom;endArrow=block;curved=0;rounded=0;" edge="1" parent="1" target="j7aMF0O2FUER8QF_j6tQ-6">
          <mxGeometry width="80" relative="1" as="geometry">
            <mxPoint x="126" y="110" as="sourcePoint" />
            <mxPoint x="290" y="110" as="targetPoint" />
          </mxGeometry>
        </mxCell>
        <mxCell id="j7aMF0O2FUER8QF_j6tQ-11" value="Request for details" style="html=1;verticalAlign=bottom;endArrow=open;dashed=1;endSize=8;curved=0;rounded=0;" edge="1" parent="1">
          <mxGeometry relative="1" as="geometry">
            <mxPoint x="319.5" y="170" as="sourcePoint" />
            <mxPoint x="126" y="170" as="targetPoint" />
          </mxGeometry>
        </mxCell>
        <mxCell id="j7aMF0O2FUER8QF_j6tQ-15" value="Verification Status" style="html=1;verticalAlign=bottom;endArrow=open;dashed=1;endSize=8;curved=0;rounded=0;" edge="1" parent="1">
          <mxGeometry relative="1" as="geometry">
            <mxPoint x="519.5" y="369" as="sourcePoint" />
            <mxPoint x="320" y="369" as="targetPoint" />
          </mxGeometry>
        </mxCell>
        <mxCell id="j7aMF0O2FUER8QF_j6tQ-16" value="Credentials valid / Not valid&amp;nbsp;" style="html=1;verticalAlign=bottom;endArrow=open;dashed=1;endSize=8;curved=0;rounded=0;" edge="1" parent="1">
          <mxGeometry relative="1" as="geometry">
            <mxPoint x="317.35" y="401.79" as="sourcePoint" />
            <mxPoint x="124.83333333333337" y="401.79" as="targetPoint" />
          </mxGeometry>
        </mxCell>
        <mxCell id="j7aMF0O2FUER8QF_j6tQ-17" value="&lt;div&gt;&lt;br&gt;&lt;/div&gt;&lt;div&gt;Send details&lt;br&gt;&lt;/div&gt;" style="html=1;verticalAlign=bottom;endArrow=block;curved=0;rounded=0;" edge="1" parent="1">
          <mxGeometry x="-0.0022" width="80" relative="1" as="geometry">
            <mxPoint x="123" y="217" as="sourcePoint" />
            <mxPoint x="322.4999999999998" y="217" as="targetPoint" />
            <mxPoint as="offset" />
          </mxGeometry>
        </mxCell>
        <mxCell id="j7aMF0O2FUER8QF_j6tQ-28" value="Valid Details?" style="html=1;verticalAlign=bottom;endArrow=block;curved=0;rounded=0;" edge="1" parent="1">
          <mxGeometry x="-0.0022" width="80" relative="1" as="geometry">
            <mxPoint x="321" y="312" as="sourcePoint" />
            <mxPoint x="520.4999999999998" y="312" as="targetPoint" />
            <mxPoint as="offset" />
          </mxGeometry>
        </mxCell>
        <mxCell id="j7aMF0O2FUER8QF_j6tQ-30" value="Details missing / Details Present" style="html=1;verticalAlign=bottom;endArrow=open;dashed=1;endSize=8;curved=0;rounded=0;exitX=0.491;exitY=0.387;exitDx=0;exitDy=0;exitPerimeter=0;" edge="1" parent="1">
          <mxGeometry relative="1" as="geometry">
            <mxPoint x="318.07000000000005" y="279.99500000000006" as="sourcePoint" />
            <mxPoint x="125" y="280" as="targetPoint" />
          </mxGeometry>
        </mxCell>
        <mxCell id="j7aMF0O2FUER8QF_j6tQ-33" value="Request for application fee" style="html=1;verticalAlign=bottom;endArrow=open;dashed=1;endSize=8;curved=0;rounded=0;exitX=0.491;exitY=0.387;exitDx=0;exitDy=0;exitPerimeter=0;" edge="1" parent="1">
          <mxGeometry relative="1" as="geometry">
            <mxPoint x="319.07000000000005" y="595.9950000000001" as="sourcePoint" />
            <mxPoint x="126" y="596" as="targetPoint" />
          </mxGeometry>
        </mxCell>
        <mxCell id="j7aMF0O2FUER8QF_j6tQ-34" value="Pay fee amount" style="html=1;verticalAlign=bottom;endArrow=block;curved=0;rounded=0;" edge="1" parent="1">
          <mxGeometry width="80" relative="1" as="geometry">
            <mxPoint x="125" y="638" as="sourcePoint" />
            <mxPoint x="319" y="638" as="targetPoint" />
          </mxGeometry>
        </mxCell>
        <mxCell id="j7aMF0O2FUER8QF_j6tQ-37" value="Valid transaction?&amp;nbsp;" style="html=1;verticalAlign=bottom;endArrow=block;curved=0;rounded=0;" edge="1" parent="1">
          <mxGeometry x="0.049" y="-1" width="80" relative="1" as="geometry">
            <mxPoint x="322" y="667" as="sourcePoint" />
            <mxPoint x="699.5" y="667" as="targetPoint" />
            <mxPoint as="offset" />
          </mxGeometry>
        </mxCell>
        <mxCell id="j7aMF0O2FUER8QF_j6tQ-40" value="Verification Status" style="html=1;verticalAlign=bottom;endArrow=open;dashed=1;endSize=8;curved=0;rounded=0;" edge="1" parent="1">
          <mxGeometry relative="1" as="geometry">
            <mxPoint x="700" y="718" as="sourcePoint" />
            <mxPoint x="319.07142857142844" y="718" as="targetPoint" />
          </mxGeometry>
        </mxCell>
        <mxCell id="j7aMF0O2FUER8QF_j6tQ-41" value="Payment done / failed transaction&amp;nbsp;" style="html=1;verticalAlign=bottom;endArrow=open;dashed=1;endSize=8;curved=0;rounded=0;" edge="1" parent="1">
          <mxGeometry relative="1" as="geometry">
            <mxPoint x="318.52000000000004" y="752" as="sourcePoint" />
            <mxPoint x="126.00333333333336" y="752" as="targetPoint" />
          </mxGeometry>
        </mxCell>
        <mxCell id="j7aMF0O2FUER8QF_j6tQ-42" value="Eligibile?" style="html=1;verticalAlign=bottom;endArrow=block;curved=0;rounded=0;" edge="1" parent="1">
          <mxGeometry x="-0.0022" width="80" relative="1" as="geometry">
            <mxPoint x="321" y="450" as="sourcePoint" />
            <mxPoint x="520.4999999999998" y="450" as="targetPoint" />
            <mxPoint as="offset" />
          </mxGeometry>
        </mxCell>
        <mxCell id="j7aMF0O2FUER8QF_j6tQ-44" value="&lt;div style=&quot;text-align: start;&quot;&gt;&lt;font face=&quot;monospace&quot; color=&quot;rgba(0, 0, 0, 0)&quot;&gt;&lt;span style=&quot;font-size: 0px; background-color: rgb(251, 251, 251);&quot;&gt;s&lt;/span&gt;&lt;/font&gt;&lt;/div&gt;" style="html=1;verticalAlign=bottom;endArrow=open;dashed=1;endSize=8;curved=0;rounded=0;" edge="1" parent="1">
          <mxGeometry relative="1" as="geometry">
            <mxPoint x="517.25" y="510" as="sourcePoint" />
            <mxPoint x="317.75" y="510" as="targetPoint" />
          </mxGeometry>
        </mxCell>
        <mxCell id="j7aMF0O2FUER8QF_j6tQ-46" value="&lt;span style=&quot;font-size: 11px; text-align: center; text-wrap: nowrap; background-color: rgb(255, 255, 255);&quot;&gt;Eligibility Status&lt;/span&gt;" style="text;whiteSpace=wrap;html=1;" vertex="1" parent="1">
          <mxGeometry x="370" y="490" width="120" height="40" as="geometry" />
        </mxCell>
        <mxCell id="j7aMF0O2FUER8QF_j6tQ-47" value="&lt;div style=&quot;text-align: start;&quot;&gt;&lt;font face=&quot;monospace&quot; color=&quot;rgba(0, 0, 0, 0)&quot;&gt;&lt;span style=&quot;font-size: 0px; background-color: rgb(251, 251, 251);&quot;&gt;s&lt;/span&gt;&lt;/font&gt;&lt;/div&gt;" style="html=1;verticalAlign=bottom;endArrow=open;dashed=1;endSize=8;curved=0;rounded=0;" edge="1" parent="1">
          <mxGeometry relative="1" as="geometry">
            <mxPoint x="321.5" y="543" as="sourcePoint" />
            <mxPoint x="122" y="543" as="targetPoint" />
          </mxGeometry>
        </mxCell>
        <mxCell id="j7aMF0O2FUER8QF_j6tQ-49" value="&lt;span style=&quot;color: rgb(0, 0, 0); font-family: Helvetica; font-size: 11px; font-style: normal; font-variant-ligatures: normal; font-variant-caps: normal; font-weight: 400; letter-spacing: normal; orphans: 2; text-align: center; text-indent: 0px; text-transform: none; widows: 2; word-spacing: 0px; -webkit-text-stroke-width: 0px; white-space: nowrap; background-color: rgb(255, 255, 255); text-decoration-thickness: initial; text-decoration-style: initial; text-decoration-color: initial; display: inline !important; float: none;&quot;&gt;Eligible/ Not Eligible&lt;/span&gt;" style="text;whiteSpace=wrap;html=1;" vertex="1" parent="1">
          <mxGeometry x="174" y="520" width="110" height="40" as="geometry" />
        </mxCell>
        <mxCell id="j7aMF0O2FUER8QF_j6tQ-50" value="Payment done" style="html=1;verticalAlign=bottom;endArrow=block;curved=0;rounded=0;" edge="1" parent="1">
          <mxGeometry x="-0.0022" width="80" relative="1" as="geometry">
            <mxPoint x="319.75" y="790" as="sourcePoint" />
            <mxPoint x="519.2499999999998" y="790" as="targetPoint" />
            <mxPoint as="offset" />
          </mxGeometry>
        </mxCell>
        <mxCell id="j7aMF0O2FUER8QF_j6tQ-52" value="Application status" style="html=1;verticalAlign=bottom;endArrow=open;dashed=1;endSize=8;curved=0;rounded=0;" edge="1" parent="1">
          <mxGeometry relative="1" as="geometry">
            <mxPoint x="520.9300000000001" y="840" as="sourcePoint" />
            <mxPoint x="320" y="840" as="targetPoint" />
          </mxGeometry>
        </mxCell>
        <mxCell id="j7aMF0O2FUER8QF_j6tQ-53" value="Sort listed / wait listed&amp;nbsp;" style="html=1;verticalAlign=bottom;endArrow=open;dashed=1;endSize=8;curved=0;rounded=0;" edge="1" parent="1">
          <mxGeometry relative="1" as="geometry">
            <mxPoint x="318.93000000000006" y="888" as="sourcePoint" />
            <mxPoint x="128" y="888" as="targetPoint" />
          </mxGeometry>
        </mxCell>
      </root>
    </mxGraphModel>
  </diagram>
</mxfile>
